<mxfile host="app.diagrams.net" agent="Mozilla/5.0 (Windows NT 10.0; Win64; x64) AppleWebKit/537.36 (KHTML, like Gecko) Chrome/132.0.0.0 Safari/537.36" version="26.0.6">
  <diagram name="Page-1" id="IfhBnaO57DrgEdgAKARm">
    <mxGraphModel dx="794" dy="446" grid="1" gridSize="10" guides="1" tooltips="1" connect="1" arrows="1" fold="1" page="1" pageScale="1" pageWidth="850" pageHeight="1100" math="0" shadow="0">
      <root>
        <mxCell id="0" />
        <mxCell id="1" parent="0" />
        <mxCell id="2rIDzzoDZRF33wWUVCwg-1" value="Petugas" style="rounded=1;whiteSpace=wrap;html=1;" parent="1" vertex="1">
          <mxGeometry x="110" y="40" width="120" height="40" as="geometry" />
        </mxCell>
        <mxCell id="2rIDzzoDZRF33wWUVCwg-2" value="" style="endArrow=none;html=1;rounded=0;" parent="1" edge="1">
          <mxGeometry width="50" height="50" relative="1" as="geometry">
            <mxPoint x="170" y="180" as="sourcePoint" />
            <mxPoint x="170" y="90" as="targetPoint" />
            <Array as="points">
              <mxPoint x="170" y="90" />
            </Array>
          </mxGeometry>
        </mxCell>
        <mxCell id="2rIDzzoDZRF33wWUVCwg-4" value="CRUD Anggota&lt;div&gt;CRUD peminjaman Buku&lt;/div&gt;&lt;div&gt;CRUD Pengembalian Buku&lt;/div&gt;&lt;div&gt;General Laporan&lt;/div&gt;" style="text;html=1;align=center;verticalAlign=middle;whiteSpace=wrap;rounded=0;" parent="1" vertex="1">
          <mxGeometry x="93.75" y="190" width="152.5" height="50" as="geometry" />
        </mxCell>
        <mxCell id="2rIDzzoDZRF33wWUVCwg-5" value="" style="endArrow=classic;html=1;rounded=0;" parent="1" edge="1">
          <mxGeometry width="50" height="50" relative="1" as="geometry">
            <mxPoint x="270" y="210" as="sourcePoint" />
            <mxPoint x="380" y="210" as="targetPoint" />
          </mxGeometry>
        </mxCell>
        <mxCell id="2rIDzzoDZRF33wWUVCwg-6" value="Sistem&lt;div&gt;Informasi&lt;/div&gt;&lt;div&gt;Perpustakaan&lt;/div&gt;" style="rounded=0;whiteSpace=wrap;html=1;" parent="1" vertex="1">
          <mxGeometry x="380" y="180" width="120" height="60" as="geometry" />
        </mxCell>
        <mxCell id="2rIDzzoDZRF33wWUVCwg-9" value="" style="endArrow=none;html=1;rounded=0;entryX=1;entryY=0.5;entryDx=0;entryDy=0;" parent="1" target="2rIDzzoDZRF33wWUVCwg-6" edge="1">
          <mxGeometry width="50" height="50" relative="1" as="geometry">
            <mxPoint x="600" y="210" as="sourcePoint" />
            <mxPoint x="510" y="220" as="targetPoint" />
          </mxGeometry>
        </mxCell>
        <mxCell id="2rIDzzoDZRF33wWUVCwg-10" value="Lihat Laporan" style="text;html=1;align=center;verticalAlign=middle;whiteSpace=wrap;rounded=0;" parent="1" vertex="1">
          <mxGeometry x="600" y="195" width="90" height="30" as="geometry" />
        </mxCell>
        <mxCell id="2rIDzzoDZRF33wWUVCwg-11" value="" style="endArrow=classic;html=1;rounded=0;exitX=0.5;exitY=1;exitDx=0;exitDy=0;" parent="1" source="2rIDzzoDZRF33wWUVCwg-10" edge="1">
          <mxGeometry width="50" height="50" relative="1" as="geometry">
            <mxPoint x="460" y="260" as="sourcePoint" />
            <mxPoint x="645" y="300" as="targetPoint" />
          </mxGeometry>
        </mxCell>
        <mxCell id="2rIDzzoDZRF33wWUVCwg-12" value="Kepala&lt;div&gt;Perpustakaan&lt;/div&gt;" style="rounded=1;whiteSpace=wrap;html=1;" parent="1" vertex="1">
          <mxGeometry x="585" y="310" width="120" height="50" as="geometry" />
        </mxCell>
        <mxCell id="2rIDzzoDZRF33wWUVCwg-13" value="" style="endArrow=classic;html=1;rounded=0;" parent="1" edge="1">
          <mxGeometry width="50" height="50" relative="1" as="geometry">
            <mxPoint x="420" y="320" as="sourcePoint" />
            <mxPoint x="420" y="260" as="targetPoint" />
          </mxGeometry>
        </mxCell>
        <mxCell id="2rIDzzoDZRF33wWUVCwg-14" value="Pendaftaran&lt;div&gt;Input Peminjaman Buku&lt;/div&gt;&lt;div&gt;Input Pengembalian Bulu&lt;/div&gt;" style="text;html=1;align=center;verticalAlign=middle;whiteSpace=wrap;rounded=0;" parent="1" vertex="1">
          <mxGeometry x="300" y="320" width="150" height="40" as="geometry" />
        </mxCell>
        <mxCell id="2rIDzzoDZRF33wWUVCwg-15" value="Anggota" style="rounded=1;whiteSpace=wrap;html=1;" parent="1" vertex="1">
          <mxGeometry x="110" y="315" width="120" height="45" as="geometry" />
        </mxCell>
        <mxCell id="2rIDzzoDZRF33wWUVCwg-16" value="" style="endArrow=none;html=1;rounded=0;entryX=1;entryY=0.5;entryDx=0;entryDy=0;" parent="1" target="2rIDzzoDZRF33wWUVCwg-15" edge="1">
          <mxGeometry width="50" height="50" relative="1" as="geometry">
            <mxPoint x="280" y="336.97" as="sourcePoint" />
            <mxPoint x="240" y="336.97" as="targetPoint" />
          </mxGeometry>
        </mxCell>
      </root>
    </mxGraphModel>
  </diagram>
</mxfile>
